<?xml version="1.0" encoding="utf-8"?>
<!-- Generator: Adobe Illustrator 28.1.0, SVG Export Plug-In . SVG Version: 6.00 Build 0)  -->
<svg version="1.1" id="Layer_2_00000050647934972596679550000006356850602379700379_"
	 xmlns="http://www.w3.org/2000/svg" xmlns:xlink="http://www.w3.org/1999/xlink" x="0px" y="0px" viewBox="0 0 630.1 199.6"
	 style="enable-background:new 0 0 630.1 199.6;" xml:space="preserve">
<style type="text/css">
	.st0{fill:#fff;}
	.st1{enable-background:new    ;}
</style>
<g id="Layer_1-2">
	<path class="st0" d="M209.5,58.8c-20.1,0-30.1,6.8-38.1,12.3l-0.2,0.2c-0.9,0.6-1.1,1.8-0.6,2.6l8.3,14.2c0.4,0.9,1.4,1.3,2.3,0.9
		c0.3-0.1,0.5-0.2,0.8-0.4l0.6-0.5c4.1-3.5,10.4-8.7,26.4-10c8.9-0.7,16.7,1.7,22.3,6.9c6.2,5.8,10,15.1,10,24.8
		c0,18-10.6,29.3-27.8,29.6c-14.1-0.1-23.6-7.4-23.6-18.2c0-5.7,2.2-10,7.4-13.7c0.8-0.5,1.1-1.6,0.6-2.4c0-0.1-0.1-0.1-0.1-0.1
		l-7.1-13.4c-0.3-0.8-1.2-1.2-2.1-1c-0.3,0.1-0.5,0.1-0.8,0.2c-8,4.7-17.4,13.8-16.9,30.5c0.6,21.2,18.3,37.3,41.2,38h2.6
		c27.3-0.9,47-21.1,47-48.3C261.8,85.6,243.5,58.8,209.5,58.8L209.5,58.8L209.5,58.8z M318.6,131.2c-12.4,0-22.2-10.3-22.2-22.8
		s9.8-22.7,22.2-22.7s22.3,10.2,22.3,22.7S331,131.2,318.6,131.2z M295,76.1V64.4c0-0.4-0.2-0.8-0.6-0.9h-20.3
		c-0.4,0-0.8,0.2-0.9,0.6v115.1c0,0.3,0.2,0.7,0.5,0.8c0.1,0.1,0.2,0.1,0.3,0.1h21.5c0.4,0.1,0.8-0.2,0.9-0.6v-37.9h0.3
		c3.4,5.2,12.8,11.4,25,11.4c23,0,42.1-19,42.1-44.6s-19-44.5-43.2-44.5c-10.8,0-19.8,6-25.6,13.1L295,76.1
		C295,76.1,295,76.1,295,76.1z M49,100.9c0,0-10.4-2.4-14.3-3.4s-10.5-3.1-10.5-8.1s5.4-6.7,10.9-6.7s11.6,1.3,12.1,7.4
		c0,0.4,0.3,0.8,0.8,0.8H48l20.2-0.1c0.4,0.1,0.8-0.2,0.9-0.6V90c-1.3-19.4-18.3-26.3-34.1-26.3c-18.7,0-32.3,12.3-32.3,25.9
		c0,9.9,2.8,19.2,24.9,25.6c3.9,1.1,9.1,2.6,13.7,3.8c5.5,1.5,8.5,3.8,8.5,7.5c0,4.2-6.2,7.2-12.2,7.2c-8.8,0-15-3.2-15.5-9
		c0-0.4-0.3-0.8-0.8-0.8H21l-20.1,0.1c-0.4-0.1-0.8,0.2-0.9,0.6v0.3C0.9,143.1,18.7,153,35.2,153c24.6,0,35.8-13.9,35.8-26.8
		C71.1,120,69.7,106.2,49,100.9L49,100.9L49,100.9z M81.9,35.2v116.8c-0.1,0.4,0.2,0.8,0.6,0.9h21.8c0.4,0.1,0.8-0.2,0.9-0.6v-50.1
		c0-9.6,6.4-16.5,16.9-16.5c11.4,0,14.2,9.3,14.2,18.8V152c-0.1,0.4,0.2,0.8,0.6,0.9h21.7c0.4,0.1,0.8-0.2,0.9-0.6v-50.6
		c0-1.7-0.1-3.4-0.2-5.1c-0.4-5.4-1.7-10.7-4-15.6c-5-10.4-14.4-17.1-28.6-17.1c-8.8,0.2-17.1,4.3-22.4,11.4l-0.5,0.6V35.2
		c0.1-0.4-0.2-0.8-0.6-0.9H82.8c-0.4,0-0.8,0.2-0.9,0.7C81.9,35.1,81.9,35.1,81.9,35.2L81.9,35.2L81.9,35.2z"/>
	<path class="st0" d="M488.8,159.2c20.1,0,30.1-6.8,38.1-12.3l0.2-0.1c0.9-0.6,1.1-1.8,0.6-2.6l-8.3-14.2c-0.4-0.9-1.4-1.3-2.3-0.9
		c-0.3,0.1-0.5,0.2-0.8,0.4l-0.6,0.5c-4.1,3.5-10.4,8.7-26.4,10c-8.9,0.7-16.7-1.7-22.3-6.9c-6.2-5.8-10-15.1-10-24.8
		c0-18,10.6-29.3,27.8-29.6c14.1,0.1,23.6,7.4,23.6,18.2c0,5.7-2.2,10-7.4,13.7c-0.8,0.5-1.1,1.6-0.6,2.4c0,0.1,0,0.1,0,0.1
		l7.1,13.4c0.3,0.8,1.2,1.2,2,1c0.3-0.1,0.5-0.1,0.8-0.2c8-4.7,17.4-13.8,16.9-30.5c-0.6-21.2-18.3-37.3-41.2-38h-2.6
		c-27.3,0.9-47,21.1-47,48.3C436.4,132.5,454.8,159.3,488.8,159.2L488.8,159.2L488.8,159.2z M584.8,131.2
		c-12.4,0-22.2-10.3-22.2-22.8s9.8-22.7,22.2-22.7s22.3,10.2,22.3,22.7S597.2,131.2,584.8,131.2z M561.2,76.1V64.4
		c0-0.4-0.2-0.8-0.6-0.9h-20.3c-0.4,0-0.8,0.2-0.9,0.6v115.1c0,0.3,0.2,0.7,0.5,0.8c0.1,0.1,0.2,0.1,0.3,0.1h21.5
		c0.4,0.1,0.8-0.2,0.9-0.6v-37.9h0.3c3.4,5.2,12.8,11.4,25,11.4c23,0,42.1-19,42.1-44.6s-19-44.5-43.2-44.5
		c-10.8,0-19.8,6-25.6,13.1L561.2,76.1C561.2,76.1,561.2,76.1,561.2,76.1z"/>
	<g>
		<g class="st1">
			<path class="st0" d="M365.9,75.6v-18h64.1v18H365.9z M414.8,154.3c-10.6,0-18.7-2.7-24.5-8.2c-5.8-5.5-8.6-13.5-8.6-24V35.6H404
				v85.7c0,4.6,1.2,8.1,3.6,10.6c2.4,2.5,5.8,3.8,10.1,3.8c4.9,0,9-1.3,12.2-4l6.5,16c-2.8,2.2-6.1,3.8-9.9,4.9
				C422.7,153.7,418.8,154.3,414.8,154.3z"/>
		</g>
	</g>
</g>
</svg>
